<svg width="16" height="16" viewBox="0 0 16 16" fill="none" xmlns="http://www.w3.org/2000/svg">
<path fill-rule="evenodd" clip-rule="evenodd" d="M0.888889 8C0.888889 11.9274 4.07264 15.1111 8 15.1111C11.9274 15.1111 15.1111 11.9274 15.1111 8C15.1111 4.07264 11.9274 0.888889 8 0.888889C4.07264 0.888889 0.888889 4.07264 0.888889 8ZM8 0C3.58172 0 0 3.58172 0 8C0 12.4183 3.58172 16 8 16C12.4183 16 16 12.4183 16 8C16 3.58172 12.4183 0 8 0Z" fill="#EEEEEE"/>
<path fill-rule="evenodd" clip-rule="evenodd" d="M8.95422 6.42941H6.65659V5.53857H10.4602V9.94325H9.59354V7.0332L6.13907 10.4617L5.53711 9.82078L8.95422 6.42941Z" fill="#EEEEEE"/>
</svg>
