<svg width="130" height="28" viewBox="0 0 130 28" fill="none" xmlns="http://www.w3.org/2000/svg">
<path d="M51.6328 4.53906V22H48.7969L40.582 10.1055H40.4297V22H37.2656V4.53906H40.1016L48.3164 16.4336H48.4688V4.53906H51.6328ZM59.3559 22.2578C58.0434 22.2578 56.9106 21.9844 55.9575 21.4375C55.0044 20.8828 54.27 20.1016 53.7544 19.0938C53.2466 18.0859 52.9927 16.8984 52.9927 15.5312C52.9927 14.1797 53.2466 12.9961 53.7544 11.9805C54.2622 10.957 54.977 10.1602 55.8989 9.58984C56.8208 9.01953 57.9067 8.73438 59.1567 8.73438C59.9614 8.73438 60.7231 8.86328 61.4419 9.12109C62.1684 9.37891 62.8091 9.77734 63.3638 10.3164C63.9263 10.8555 64.3677 11.543 64.688 12.3789C65.0083 13.207 65.1684 14.1953 65.1684 15.3438V16.3047H54.4341V14.2305H63.6333L62.1919 14.8398C62.1919 14.0977 62.0786 13.4531 61.852 12.9062C61.6255 12.3516 61.2895 11.918 60.8442 11.6055C60.3989 11.293 59.8442 11.1367 59.1802 11.1367C58.5161 11.1367 57.9497 11.293 57.4809 11.6055C57.0122 11.918 56.6567 12.3398 56.4145 12.8711C56.1723 13.3945 56.0513 13.9805 56.0513 14.6289V16.0703C56.0513 16.8672 56.188 17.5508 56.4614 18.1211C56.7427 18.6836 57.1333 19.1133 57.6333 19.4102C58.1411 19.707 58.7309 19.8555 59.4028 19.8555C59.8403 19.8555 60.2388 19.793 60.5981 19.668C60.9653 19.543 61.2778 19.3555 61.5356 19.1055C61.8013 18.8477 62.0044 18.5312 62.145 18.1562L65.0278 18.4961C64.8403 19.2539 64.4927 19.918 63.9848 20.4883C63.4848 21.0508 62.8403 21.4883 62.0513 21.8008C61.27 22.1055 60.3716 22.2578 59.3559 22.2578ZM68.3916 8.89844L71.0283 13.75L73.7119 8.89844H76.9814L73.0439 15.4609L77.0517 22H73.8056L71.0283 17.2891L68.2978 22H65.0283L69.0009 15.4609L65.122 8.89844H68.3916ZM81.728 22.2695C80.892 22.2695 80.142 22.1211 79.478 21.8242C78.8139 21.5195 78.2905 21.0742 77.9077 20.4883C77.5248 19.9023 77.3334 19.1797 77.3334 18.3203C77.3334 17.5859 77.4702 16.9766 77.7436 16.4922C78.017 16.0078 78.3881 15.6211 78.8569 15.332C79.3334 15.043 79.8686 14.8242 80.4623 14.6758C81.0561 14.5195 81.6694 14.4102 82.3022 14.3477C83.0756 14.2617 83.7006 14.1875 84.1772 14.125C84.6538 14.0625 84.9975 13.9609 85.2084 13.8203C85.4272 13.6797 85.5366 13.4609 85.5366 13.1641V13.1055C85.5366 12.4727 85.3491 11.9805 84.9741 11.6289C84.5991 11.2773 84.0522 11.1016 83.3334 11.1016C82.5756 11.1016 81.9741 11.2656 81.5288 11.5938C81.0913 11.9219 80.7944 12.3086 80.6381 12.7539L77.767 12.3438C77.9936 11.5469 78.3686 10.8828 78.892 10.3516C79.4155 9.8125 80.0522 9.41016 80.8022 9.14453C81.56 8.87109 82.3959 8.73438 83.31 8.73438C83.935 8.73438 84.56 8.80859 85.185 8.95703C85.81 9.09766 86.3842 9.33984 86.9077 9.68359C87.4311 10.0273 87.8491 10.4883 88.1616 11.0664C88.4741 11.6445 88.6303 12.3672 88.6303 13.2344V22H85.6655V20.1953H85.5717C85.3842 20.5547 85.1186 20.8945 84.7748 21.2148C84.4389 21.5273 84.017 21.7812 83.5092 21.9766C83.0092 22.1719 82.4155 22.2695 81.728 22.2695ZM82.5131 19.9961C83.1381 19.9961 83.6772 19.875 84.1303 19.6328C84.5834 19.3828 84.935 19.0547 85.185 18.6484C85.435 18.2344 85.56 17.7852 85.56 17.3008V15.7656C85.4584 15.8438 85.2944 15.918 85.0678 15.9883C84.8413 16.0508 84.5834 16.1094 84.2944 16.1641C84.0053 16.2188 83.7202 16.2656 83.4389 16.3047C83.1655 16.3438 82.9272 16.375 82.7241 16.3984C82.2631 16.4609 81.8491 16.5664 81.4819 16.7148C81.1225 16.8555 80.8373 17.0508 80.6264 17.3008C80.4155 17.5508 80.31 17.875 80.31 18.2734C80.31 18.8438 80.517 19.2734 80.9311 19.5625C81.3452 19.8516 81.8725 19.9961 82.5131 19.9961ZM90.4355 22V8.89844H93.4238V11.1016H93.5644C93.7988 10.3359 94.2089 9.75 94.7948 9.34375C95.3808 8.92969 96.0488 8.72266 96.7988 8.72266C96.9628 8.72266 97.1503 8.73047 97.3613 8.74609C97.58 8.76172 97.7597 8.78125 97.9003 8.80469V11.6406C97.7675 11.5938 97.5605 11.5547 97.2792 11.5234C96.998 11.4922 96.7284 11.4766 96.4706 11.4766C95.9003 11.4766 95.3925 11.5977 94.9472 11.8398C94.5019 12.082 94.1503 12.4141 93.8925 12.8359C93.6425 13.2578 93.5175 13.75 93.5175 14.3125V22H90.4355ZM98.5805 22V8.89844H101.662V22H98.5805ZM100.127 7.05859C99.6352 7.05859 99.2133 6.89453 98.8617 6.56641C98.5102 6.23828 98.3344 5.84375 98.3344 5.38281C98.3344 4.91406 98.5102 4.51562 98.8617 4.1875C99.2133 3.85938 99.6352 3.69531 100.127 3.69531C100.612 3.69531 101.03 3.85938 101.381 4.1875C101.733 4.51562 101.909 4.91016 101.909 5.37109C101.909 5.83984 101.733 6.23828 101.381 6.56641C101.03 6.89453 100.612 7.05859 100.127 7.05859ZM109.175 22.2578C107.893 22.2578 106.784 21.9766 105.847 21.4141C104.909 20.8516 104.183 20.0625 103.667 19.0469C103.159 18.0312 102.905 16.8516 102.905 15.5078C102.905 14.1562 103.159 12.9727 103.667 11.957C104.183 10.9336 104.909 10.1406 105.847 9.57812C106.784 9.01562 107.893 8.73438 109.175 8.73438C110.456 8.73438 111.565 9.01562 112.503 9.57812C113.44 10.1406 114.167 10.9336 114.683 11.957C115.198 12.9727 115.456 14.1562 115.456 15.5078C115.456 16.8516 115.198 18.0312 114.683 19.0469C114.167 20.0625 113.44 20.8516 112.503 21.4141C111.565 21.9766 110.456 22.2578 109.175 22.2578ZM109.175 19.7734C109.886 19.7734 110.472 19.5859 110.933 19.2109C111.393 18.8281 111.737 18.3125 111.964 17.6641C112.198 17.0156 112.315 16.2969 112.315 15.5078C112.315 14.7031 112.198 13.9766 111.964 13.3281C111.737 12.6797 111.393 12.168 110.933 11.793C110.472 11.4102 109.886 11.2188 109.175 11.2188C108.479 11.2188 107.897 11.4102 107.429 11.793C106.96 12.168 106.608 12.6797 106.374 13.3281C106.147 13.9766 106.034 14.7031 106.034 15.5078C106.034 16.2969 106.147 17.0156 106.374 17.6641C106.608 18.3125 106.96 18.8281 107.429 19.2109C107.897 19.5859 108.479 19.7734 109.175 19.7734ZM119.757 14.3359V22H116.675V8.89844H119.699V11.1367H119.851C120.148 10.4023 120.613 9.82031 121.245 9.39062C121.886 8.95312 122.699 8.73438 123.683 8.73438C124.589 8.73438 125.378 8.92578 126.05 9.30859C126.722 9.69141 127.242 10.2539 127.609 10.9961C127.984 11.7305 128.171 12.6211 128.171 13.668V22H125.089V14.1484C125.089 13.2734 124.863 12.5898 124.41 12.0977C123.956 11.5977 123.331 11.3477 122.535 11.3477C121.995 11.3477 121.515 11.4648 121.093 11.6992C120.679 11.9336 120.351 12.2734 120.109 12.7188C119.874 13.1562 119.757 13.6953 119.757 14.3359Z" fill="#2B2B2B"/>
<path d="M12.7442 2L26 17.6164V26H19.8139V20.6302L10.1861 9.28765H8.18605V26H2V2H12.7442ZM19.8139 10.3288V2H26V10.3288H19.8139Z" fill="#2B2B2B"/>
</svg>
